<svg width="94" height="26" viewBox="0 0 94 26" fill="none" xmlns="http://www.w3.org/2000/svg">
<g id="socils">
<g id="Github">
<circle id="Ellipse 21" cx="13" cy="13" r="12.5" fill="#D9D9D9" fill-opacity="0.01" stroke="#0B1D5D"/>
<path id="Vector" d="M13.1946 3C7.562 3 2.99988 7.56212 2.99988 13.1947C2.99988 17.7058 5.91811 21.5161 9.97049 22.8669C10.4802 22.9561 10.6714 22.6503 10.6714 22.3826C10.6714 22.1405 10.6586 21.3377 10.6586 20.4839C8.09722 20.9554 7.43457 19.8595 7.23067 19.286C7.11598 18.9929 6.61899 18.0881 6.18572 17.846C5.8289 17.6549 5.31917 17.1834 6.17297 17.1706C6.9758 17.1579 7.54926 17.9097 7.74041 18.2156C8.65793 19.7575 10.1234 19.3242 10.7096 19.0566C10.7988 18.394 11.0664 17.948 11.3595 17.6931C9.0912 17.4382 6.72094 16.5589 6.72094 12.6595C6.72094 11.5508 7.11598 10.6333 7.76589 9.91964C7.66395 9.66477 7.30713 8.61982 7.86784 7.21805C7.86784 7.21805 8.72164 6.95044 10.6714 8.26301C11.487 8.03362 12.3535 7.91893 13.22 7.91893C14.0866 7.91893 14.9531 8.03362 15.7687 8.26301C17.7185 6.9377 18.5723 7.21805 18.5723 7.21805C19.133 8.61982 18.7762 9.66477 18.6742 9.91964C19.3241 10.6333 19.7192 11.538 19.7192 12.6595C19.7192 16.5717 17.3362 17.4382 15.0678 17.6931C15.4374 18.0117 15.756 18.6234 15.756 19.5791C15.756 20.9426 15.7432 22.0386 15.7432 22.3826C15.7432 22.6503 15.9344 22.9688 16.4441 22.8669C18.4681 22.1838 20.2268 20.8832 21.4727 19.1481C22.7186 17.413 23.3889 15.3308 23.3892 13.1947C23.3892 7.56212 18.8271 3 13.1946 3Z" fill="#0B1D5D"/>
</g>
<g id="Twitter">
<circle id="Ellipse 22" cx="47" cy="13" r="12.5" fill="#D9D9D9" fill-opacity="0.01" stroke="#0B1D5D"/>
<path id="Vector_2" d="M55.7742 7.61752C55.1573 7.89086 54.4946 8.07555 53.798 8.15903C54.5168 7.72892 55.0546 7.05198 55.311 6.25452C54.6356 6.65565 53.8965 6.93801 53.1257 7.08931C52.6074 6.53588 51.9208 6.16906 51.1727 6.0458C50.4245 5.92253 49.6566 6.04973 48.9881 6.40762C48.3196 6.76552 47.788 7.33411 47.4758 8.0251C47.1636 8.71609 47.0882 9.49082 47.2615 10.229C45.893 10.1603 44.5544 9.80465 43.3323 9.18509C42.1103 8.56554 41.0321 7.69595 40.1679 6.63276C39.8724 7.1425 39.7025 7.73351 39.7025 8.36293C39.7022 8.92955 39.8417 9.48749 40.1087 9.98726C40.3757 10.487 40.762 10.9131 41.2332 11.2278C40.6867 11.2104 40.1523 11.0628 39.6744 10.7971V10.8415C39.6744 11.6362 39.9493 12.4064 40.4525 13.0215C40.9557 13.6366 41.6562 14.0587 42.4352 14.2161C41.9282 14.3533 41.3967 14.3735 40.8808 14.2752C41.1006 14.959 41.5287 15.557 42.1052 15.9854C42.6817 16.4138 43.3778 16.6512 44.0959 16.6643C42.8768 17.6213 41.3713 18.1404 39.8214 18.1382C39.5469 18.1382 39.2726 18.1222 38.9999 18.0901C40.5731 19.1016 42.4044 19.6384 44.2747 19.6364C50.6058 19.6364 54.0669 14.3927 54.0669 9.84487C54.0669 9.69712 54.0632 9.54789 54.0565 9.40014C54.7298 8.91328 55.3109 8.3104 55.7727 7.61974L55.7742 7.61752Z" fill="#0B1D5D"/>
</g>
<g id="linkedin">
<circle id="Ellipse 23" cx="81" cy="13" r="12.5" fill="#D9D9D9" fill-opacity="0.01" stroke="#0B1D5D"/>
<path id="Vector_3" d="M88.2706 14.3604V19.6364H85.2118V14.7136C85.2118 13.4767 84.7692 12.633 83.6624 12.633C82.8173 12.633 82.3139 13.2021 82.093 13.752C82.0122 13.9486 81.9915 14.2224 81.9915 14.4977V19.6364H78.9313C78.9313 19.6364 78.9728 11.2995 78.9313 10.4351H81.9915V11.7393L81.9715 11.7693H81.9915V11.7393C82.3976 11.1136 83.1233 10.2192 84.7485 10.2192C86.7612 10.2192 88.2706 11.5348 88.2706 14.3604ZM75.731 6C74.685 6 74 6.68639 74 7.58943C74 8.47245 74.6649 9.17958 75.691 9.17958H75.711C76.7785 9.17958 77.4413 8.47245 77.4413 7.58943C77.4227 6.68639 76.7792 6 75.7317 6H75.731ZM74.1816 19.6364H77.2404V10.4351H74.1816V19.6364Z" fill="#0B1D5D"/>
</g>
</g>
</svg>
